<svg version="1.1" id="Layer_1" xmlns="http://www.w3.org/2000/svg" xmlns:xlink="http://www.w3.org/1999/xlink" x="0px" y="0px" style="enable-background:new 0 0 1000 1000;" xml:space="preserve" viewBox="294.37 473.9 143.68 87.73">
  <style type="text/css">
    .st0 {
      fill: #171721;
    }

    .st1 {
      fill: #615FF4;
    }

    .st2 {
      fill-rule: evenodd;
      clip-rule: evenodd;
      fill: #615FF4;
    }

    .st3 {
      fill: #19193A;
    }

    .st4 {
      fill-rule: evenodd;
      clip-rule: evenodd;
      fill: #19193A;
    }
  </style>
  <style class="darkreader darkreader--sync" media="screen"></style>
  <g>
    <path class="st2" d="M410.32,561.53l-23.4,0.01c34.77-4.79,34.08-19.01,34.08-19.01c-3.34,11.91-31.48,16.43-55.78,18.11   c-0.93,0.06-1.85,0.13-2.76,0.18c-11.3,0.69-21.52,0.81-27.63,0.81h-19.17c-4.51,0-4.51-6.83,0-6.83l23.35-0.03   c4.14-0.63,3.69-6.77-0.51-6.77h-37.03c-4.51,0-4.51-6.83,0-6.83h13.6c4.51,0,4.51-6.82,0-6.82h-11.92c-4.51,0-4.51-6.82,0-6.82   h21.74c0.83,0,1.51-0.23,2.04-0.62c2.31-1.67,1.63-6.2-2.04-6.2h-27.11c-4.52,0-4.52-6.81,0-6.81h50.45c0.93,0,1.79-0.38,2.4-1.01   c0.1-0.09,0.2-0.21,0.3-0.33c0.44-0.56,0.71-1.3,0.71-2.07c0-1.88-1.54-3.41-3.41-3.41h-33.59c-1.91,0-3.1-0.98-3.56-2.19   c-0.78-2,0.41-4.64,3.56-4.64h20.06v0.02l0.36-0.02c0.2-1.08,0.43-2.14,0.67-3.16c0.14-0.55,0.29-1.09,0.45-1.62   c0.82-2.79,1.87-5.3,3.13-7.54c0.74-1.31,1.55-2.53,2.42-3.65c1.37-1.76,2.89-3.29,4.56-4.6c0.76-0.6,1.56-1.16,2.38-1.66   c0.21-0.13,0.43-0.26,0.65-0.38c2-1.16,4.15-2.05,6.42-2.66c0.1-0.03,0.2-0.05,0.3-0.07c0.38-0.11,0.77-0.19,1.17-0.28   c1.61-0.35,3.27-0.56,4.99-0.66c0.5-0.02,1.01-0.04,1.52-0.04c0.63,0,1.26,0.01,1.9,0.04c1.44,0.07,2.91,0.22,4.41,0.46   c0.43,0.07,0.87,0.14,1.31,0.21c0.03,0,0.05,0.01,0.08,0.01c3.33,0.54,6.85,1.25,10.03,3.09c0.18,0.1,0.37,0.22,0.57,0.34   c0.98,0.6,2.16,1.38,3.39,2.25c0.14,0.1,0.27,0.19,0.41,0.3c1.19,0.84,2.42,1.77,3.56,2.69c1.59,1.27,3.01,2.52,3.95,3.54   c1.39,1.52,3.63,4.62,5.73,7.67c2.74,3.96,5.25,7.84,5.4,8.07c0,0.01,0,0.01,0,0.01l5.67,1.62l0.19,0.05   c4.62,0.61,8.68,1.58,12.34,3.43c0.85,0.43,1.67,0.91,2.48,1.44c0.61,0.4,1.2,0.83,1.79,1.3c1.82,1.45,3.56,3.23,5.23,5.41   c0.03,0.03,0.05,0.07,0.07,0.1c1.4,1.84,2.52,3.77,3.38,5.77c1.28,2.91,2.04,6.01,2.38,9.31   C439.01,547.9,426.24,561.38,410.32,561.53z"></path>
  </g>
</svg>