<?xml version="1.0" encoding="UTF-8"?>
<svg xmlns="http://www.w3.org/2000/svg" xmlns:xlink="http://www.w3.org/1999/xlink" width="20px" height="20px" viewBox="0 0 20 20" version="1.1">
<g id="surface1">
<path style=" stroke:none;fill-rule:nonzero;fill-opacity:1;" d="M 7.09375 0.0429688 C 5.335938 0.269531 3.640625 1.097656 2.386719 2.34375 C 1.132812 3.589844 0.304688 5.242188 0.0625 6.988281 C -0.0195312 7.570312 -0.0195312 8.699219 0.0625 9.269531 C 0.589844 12.925781 3.476562 15.753906 7.148438 16.207031 C 7.648438 16.269531 8.765625 16.261719 9.269531 16.1875 C 12.925781 15.660156 15.753906 12.773438 16.210938 9.101562 C 16.261719 8.675781 16.261719 7.574219 16.207031 7.148438 C 16.019531 5.617188 15.378906 4.121094 14.414062 2.953125 C 14.164062 2.644531 13.527344 2.015625 13.222656 1.769531 C 12.101562 0.859375 10.585938 0.226562 9.101562 0.0429688 C 8.714844 -0.0078125 7.480469 -0.00390625 7.09375 0.0429688 Z M 8.53125 2.539062 C 11.039062 2.742188 13.070312 4.523438 13.613281 6.992188 C 13.710938 7.4375 13.734375 8.484375 13.660156 8.964844 C 13.40625 10.546875 12.476562 11.980469 11.136719 12.839844 C 10.785156 13.066406 10.089844 13.386719 9.707031 13.496094 C 8.730469 13.777344 7.675781 13.789062 6.679688 13.535156 C 5.335938 13.191406 4.039062 12.210938 3.320312 10.992188 C 2.039062 8.824219 2.335938 6.121094 4.050781 4.292969 C 4.992188 3.292969 6.308594 2.652344 7.648438 2.542969 C 7.855469 2.523438 8.027344 2.507812 8.03125 2.503906 C 8.035156 2.503906 8.257812 2.519531 8.53125 2.539062 Z M 8.53125 2.539062 "/>
<path style=" stroke:none;fill-rule:nonzero;fill-opacity:1;" d="M 7.226562 3.828125 C 6.621094 3.957031 6.179688 4.140625 5.671875 4.480469 C 4.800781 5.058594 4.144531 5.988281 3.867188 7.03125 C 3.738281 7.523438 3.714844 8.476562 3.820312 8.984375 C 4.191406 10.753906 5.488281 12.058594 7.246094 12.425781 C 7.726562 12.527344 8.523438 12.527344 9.003906 12.425781 C 10.671875 12.074219 11.945312 10.867188 12.382812 9.21875 C 12.511719 8.726562 12.535156 7.773438 12.429688 7.265625 C 12.058594 5.496094 10.761719 4.191406 9.003906 3.824219 C 8.53125 3.726562 7.691406 3.726562 7.226562 3.828125 Z M 7.433594 6.644531 C 7.480469 6.667969 7.867188 7.03125 8.292969 7.453125 L 9.0625 8.222656 L 9.835938 7.453125 C 10.257812 7.03125 10.644531 6.667969 10.691406 6.644531 C 10.828125 6.574219 11.097656 6.59375 11.242188 6.679688 C 11.496094 6.835938 11.601562 7.199219 11.46875 7.453125 C 11.398438 7.578125 9.429688 9.542969 9.308594 9.605469 C 9.199219 9.660156 8.925781 9.660156 8.816406 9.605469 C 8.769531 9.582031 8.382812 9.21875 7.960938 8.796875 L 7.1875 8.027344 L 6.417969 8.796875 C 5.992188 9.21875 5.605469 9.582031 5.558594 9.605469 C 5.421875 9.675781 5.152344 9.65625 5.007812 9.570312 C 4.753906 9.414062 4.648438 9.050781 4.78125 8.796875 C 4.84375 8.679688 6.8125 6.710938 6.933594 6.644531 C 7.035156 6.589844 7.324219 6.589844 7.433594 6.644531 Z M 7.433594 6.644531 "/>
<path style=" stroke:none;fill-rule:nonzero;fill-opacity:1;" d="M 15.65625 13.644531 C 15.054688 14.476562 14.3125 15.195312 13.339844 15.882812 C 13.265625 15.933594 13.367188 16.042969 15.097656 17.773438 C 16.109375 18.785156 17.015625 19.667969 17.121094 19.730469 C 17.652344 20.078125 18.507812 20.097656 19.0625 19.773438 C 19.300781 19.636719 19.582031 19.367188 19.730469 19.136719 C 20.078125 18.59375 20.097656 17.753906 19.777344 17.1875 C 19.71875 17.082031 18.933594 16.265625 17.816406 15.144531 C 16.796875 14.121094 15.949219 13.28125 15.9375 13.28125 C 15.925781 13.285156 15.800781 13.445312 15.65625 13.644531 Z M 15.65625 13.644531 "/>
</g>
</svg>
