<?xml version="1.0" encoding="UTF-8"?>
<svg xmlns="http://www.w3.org/2000/svg" xmlns:xlink="http://www.w3.org/1999/xlink" width="20px" height="20px" viewBox="0 0 20 20" version="1.1">
<defs>
<filter id="alpha" filterUnits="objectBoundingBox" x="0%" y="0%" width="100%" height="100%">
  <feColorMatrix type="matrix" in="SourceGraphic" values="0 0 0 0 1 0 0 0 0 1 0 0 0 0 1 0 0 0 1 0"/>
</filter>
<mask id="mask0">
  <g filter="url(#alpha)">
<rect x="0" y="0" width="20" height="20"/>
  </g>
</mask>
<clipPath id="clip1">
  <rect x="0" y="0" width="20" height="20"/>
</clipPath>
<g id="surface5" clip-path="url(#clip1)">
<path style=" stroke:none;fill-rule:evenodd;fill-opacity:1;" d="M 3.808594 0.175781 C 5.386719 0.136719 6.273438 0.898438 6.464844 2.460938 C 6.394531 3.617188 5.808594 4.375 4.707031 4.726562 C 3.449219 4.941406 2.542969 4.476562 1.992188 3.339844 C 1.617188 2.128906 1.949219 1.171875 2.988281 0.46875 C 3.253906 0.335938 3.527344 0.238281 3.808594 0.175781 Z M 3.808594 0.175781 "/>
</g>
<mask id="mask1">
  <g filter="url(#alpha)">
<rect x="0" y="0" width="20" height="20"/>
  </g>
</mask>
<clipPath id="clip2">
  <rect x="0" y="0" width="20" height="20"/>
</clipPath>
<g id="surface8" clip-path="url(#clip2)">
<path style=" stroke:none;fill-rule:evenodd;fill-opacity:1;" d="M 9.003906 0.996094 C 9.277344 0.976562 9.503906 1.066406 9.6875 1.269531 C 10.273438 2.3125 10.878906 3.339844 11.503906 4.355469 C 12.453125 3.800781 13.40625 3.25 14.355469 2.695312 C 14.703125 2.449219 15.035156 2.46875 15.351562 2.753906 C 15.9375 3.769531 16.523438 4.785156 17.109375 5.800781 C 17.195312 5.53125 17.273438 5.257812 17.34375 4.980469 C 17.605469 4.5625 17.949219 4.480469 18.378906 4.726562 C 18.5625 4.933594 18.621094 5.171875 18.554688 5.449219 C 18.351562 6.277344 18.117188 7.097656 17.851562 7.910156 C 17.664062 8.109375 17.4375 8.183594 17.167969 8.125 C 16.386719 7.917969 15.605469 7.707031 14.824219 7.5 C 14.472656 7.324219 14.351562 7.046875 14.453125 6.660156 C 14.574219 6.390625 14.78125 6.25 15.078125 6.230469 C 15.382812 6.316406 15.691406 6.390625 15.996094 6.445312 C 15.546875 5.707031 15.109375 4.957031 14.6875 4.199219 C 14.65625 4.152344 14.617188 4.113281 14.570312 4.082031 C 13.535156 4.671875 12.5 5.265625 11.464844 5.859375 C 11.25 5.917969 11.042969 5.894531 10.839844 5.78125 C 10.042969 4.507812 9.28125 3.210938 8.554688 1.894531 C 8.4375 1.457031 8.585938 1.15625 9.003906 0.996094 Z M 9.003906 0.996094 "/>
</g>
<mask id="mask2">
  <g filter="url(#alpha)">
<rect x="0" y="0" width="20" height="20" style="fill-opacity:0.992157;stroke:none;"/>
  </g>
</mask>
<clipPath id="clip3">
  <rect x="0" y="0" width="20" height="20"/>
</clipPath>
<g id="surface11" clip-path="url(#clip3)">
<path style=" stroke:none;fill-rule:evenodd;fill-opacity:1;" d="M 2.128906 5.175781 C 3.46875 5.167969 4.8125 5.175781 6.152344 5.195312 C 7.203125 5.386719 7.847656 6.007812 8.085938 7.050781 C 8.113281 8.835938 8.113281 10.617188 8.085938 12.402344 C 7.824219 13.167969 7.285156 13.546875 6.464844 13.535156 C 6.472656 15.1875 6.464844 16.84375 6.445312 18.496094 C 6.320312 19.171875 5.921875 19.597656 5.253906 19.765625 C 4.511719 19.792969 3.769531 19.792969 3.027344 19.765625 C 2.488281 19.644531 2.117188 19.324219 1.914062 18.808594 C 1.855469 17.050781 1.835938 15.292969 1.855469 13.535156 C 1.066406 13.558594 0.523438 13.207031 0.234375 12.480469 C 0.171875 10.699219 0.15625 8.914062 0.195312 7.128906 C 0.429688 6.066406 1.074219 5.417969 2.128906 5.175781 Z M 2.128906 5.175781 "/>
</g>
</defs>
<g id="surface1">
<use xlink:href="#surface5" mask="url(#mask0)"/>
<use xlink:href="#surface8" mask="url(#mask1)"/>
<use xlink:href="#surface11" mask="url(#mask2)"/>
</g>
</svg>
