<?xml version="1.0" encoding="UTF-8"?>
<svg xmlns="http://www.w3.org/2000/svg" xmlns:xlink="http://www.w3.org/1999/xlink" width="40px" height="40px" viewBox="0 0 90 90" version="1.1">
<defs>
<filter id="alpha" filterUnits="objectBoundingBox" x="0%" y="0%" width="100%" height="100%">
  <feColorMatrix type="matrix" in="SourceGraphic" values="0 0 0 0 1 0 0 0 0 1 0 0 0 0 1 0 0 0 1 0"/>
</filter>
<mask id="mask0">
  <g filter="url(#alpha)">
<rect x="0" y="0" width="90" height="90" style="fill:rgb(100%,100%,100%,30%);fill-opacity:0.933333;stroke:none;"/>
  </g>
</mask>
<clipPath id="clip1">
  <rect x="0" y="0" width="90" height="90"/>
</clipPath>
<g id="surface5" clip-path="url(#clip1)">
<path style=" stroke:none;fill-rule:evenodd;fill:rgb(100%,100%,100%,30%);fill-opacity:1;" d="M 89.914062 16.4375 C 89.914062 35.421875 89.914062 54.40625 89.914062 73.390625 C 88.75 78.214844 85.703125 80.996094 80.773438 81.738281 C 56.867188 81.855469 32.960938 81.855469 9.054688 81.738281 C 4.234375 81.0625 1.1875 78.398438 -0.0859375 73.742188 C -0.0859375 54.523438 -0.0859375 35.300781 -0.0859375 16.085938 C 1.1875 11.425781 4.234375 8.761719 9.054688 8.085938 C 32.960938 7.96875 56.867188 7.96875 80.773438 8.085938 C 85.699219 8.828125 88.746094 11.609375 89.914062 16.4375 Z M 9.054688 10.28125 C 10.109375 10.28125 11.164062 10.28125 12.21875 10.28125 C 12.21875 17.3125 12.21875 24.34375 12.21875 31.375 C 8.820312 31.375 5.417969 31.375 2.023438 31.375 C 1.992188 26.921875 2.023438 22.46875 2.109375 18.015625 C 2.488281 13.683594 4.804688 11.105469 9.054688 10.28125 Z M 14.5 10.28125 C 34.773438 10.28125 55.050781 10.28125 75.320312 10.28125 C 75.320312 17.3125 75.320312 24.34375 75.320312 31.375 C 55.050781 31.375 34.773438 31.375 14.5 31.375 C 14.5 24.34375 14.5 17.3125 14.5 10.28125 Z M 77.609375 10.28125 C 82.0625 9.710938 85.257812 11.410156 87.1875 15.382812 C 87.347656 15.839844 87.464844 16.308594 87.539062 16.789062 C 87.625 21.648438 87.65625 26.511719 87.625 31.375 C 84.289062 31.375 80.945312 31.375 77.609375 31.375 C 77.609375 24.34375 77.609375 17.3125 77.609375 10.28125 Z M 2.023438 33.664062 C 12.511719 33.664062 22.996094 33.664062 33.484375 33.664062 C 33.484375 34.949219 33.484375 36.242188 33.484375 37.53125 C 22.996094 37.53125 12.511719 37.53125 2.023438 37.53125 C 2.023438 36.242188 2.023438 34.949219 2.023438 33.664062 Z M 35.773438 33.664062 C 41.867188 33.664062 47.957031 33.664062 54.054688 33.664062 C 54.082031 38.292969 54.054688 42.921875 53.964844 47.546875 C 54.058594 48.914062 53.503906 49.878906 52.296875 50.449219 C 47.375 50.566406 42.453125 50.566406 37.53125 50.449219 C 36.4375 50.03125 35.851562 49.242188 35.773438 48.078125 C 35.777344 43.289062 35.777344 38.484375 35.773438 33.664062 Z M 56.335938 33.664062 C 66.765625 33.664062 77.199219 33.664062 87.625 33.664062 C 87.625 34.949219 87.625 36.242188 87.625 37.53125 C 77.199219 37.53125 66.765625 37.53125 56.335938 37.53125 C 56.335938 36.242188 56.335938 34.949219 56.335938 33.664062 Z M 44.03125 38.054688 C 45.839844 37.785156 46.746094 38.546875 46.757812 40.34375 C 46.261719 41.679688 45.351562 42.117188 44.03125 41.660156 C 42.636719 40.460938 42.636719 39.257812 44.03125 38.054688 Z M 2.023438 39.8125 C 12.511719 39.8125 22.996094 39.8125 33.484375 39.8125 C 33.484375 41.867188 33.484375 43.914062 33.484375 45.96875 C 27.035156 45.910156 20.589844 45.96875 14.148438 46.140625 C 13.773438 46.933594 13.449219 47.753906 13.183594 48.601562 C 12.425781 49.324219 11.515625 49.707031 10.460938 49.746094 C 10.214844 49.953125 10.066406 50.214844 10.019531 50.539062 C 9.902344 56.632812 9.902344 62.722656 10.019531 68.820312 C 10.15625 69.132812 10.363281 69.394531 10.632812 69.609375 C 12.652344 69.75 13.734375 70.835938 13.886719 72.859375 C 14.046875 73.074219 14.25 73.21875 14.5 73.300781 C 34.773438 73.417969 55.050781 73.417969 75.320312 73.300781 C 76.035156 72.90625 76.355469 72.289062 76.289062 71.453125 C 76.835938 70.199219 77.800781 69.585938 79.1875 69.609375 C 79.335938 69.464844 79.484375 69.316406 79.628906 69.171875 C 79.746094 62.84375 79.746094 56.515625 79.628906 50.1875 C 79.574219 50.042969 79.488281 49.925781 79.367188 49.835938 C 78.320312 49.710938 77.414062 49.300781 76.640625 48.601562 C 76.375 47.753906 76.050781 46.933594 75.671875 46.140625 C 69.234375 45.96875 62.789062 45.910156 56.335938 45.96875 C 56.335938 43.914062 56.335938 41.867188 56.335938 39.8125 C 66.765625 39.8125 77.199219 39.8125 87.625 39.8125 C 87.65625 50.890625 87.625 61.964844 87.539062 73.039062 C 86.738281 76.703125 84.484375 78.84375 80.773438 79.453125 C 56.867188 79.570312 32.960938 79.570312 9.054688 79.453125 C 4.769531 78.6875 2.457031 76.136719 2.109375 71.804688 C 2.023438 61.144531 1.992188 50.480469 2.023438 39.8125 Z M 15.734375 48.25 C 21.652344 48.222656 27.570312 48.25 33.484375 48.339844 C 33.664062 50.335938 34.660156 51.742188 36.476562 52.558594 C 39.277344 52.761719 42.089844 52.847656 44.914062 52.820312 C 47.734375 52.847656 50.546875 52.761719 53.351562 52.558594 C 55.09375 51.691406 56.089844 50.285156 56.335938 48.339844 C 62.195312 48.222656 68.058594 48.222656 73.914062 48.339844 C 74.472656 50.066406 75.617188 51.210938 77.34375 51.765625 C 77.488281 57.042969 77.460938 62.316406 77.257812 67.585938 C 75.578125 68.179688 74.464844 69.324219 73.914062 71.015625 C 54.523438 71.101562 35.128906 71.132812 15.734375 71.101562 C 15.324219 69.171875 14.152344 68 12.21875 67.585938 C 12.160156 62.3125 12.21875 57.039062 12.390625 51.765625 C 14.230469 51.277344 15.34375 50.105469 15.734375 48.25 Z M 15.734375 48.25 "/>
</g>
<mask id="mask1">
  <g filter="url(#alpha)">
<rect x="0" y="0" width="90" height="90" style="fill:rgb(100%,100%,100%,30%);fill-opacity:0.909804;stroke:none;"/>
  </g>
</mask>
<clipPath id="clip2">
  <rect x="0" y="0" width="90" height="90"/>
</clipPath>
<g id="surface8" clip-path="url(#clip2)">
<path style=" stroke:none;fill-rule:evenodd;fill:rgb(100%,100%,100%,30%);fill-opacity:1;" d="M 44.734375 35.59375 C 48.179688 36.03125 49.558594 37.964844 48.867188 41.398438 C 48.386719 42.726562 47.480469 43.605469 46.140625 44.03125 C 45.996094 45.378906 45.910156 46.726562 45.878906 48.078125 C 45.023438 48.851562 44.320312 48.734375 43.769531 47.726562 C 43.710938 46.492188 43.652344 45.265625 43.59375 44.03125 C 41.132812 42.933594 40.253906 41.058594 40.957031 38.40625 C 41.636719 36.675781 42.898438 35.738281 44.734375 35.59375 Z M 44.03125 38.054688 C 42.636719 39.257812 42.636719 40.460938 44.03125 41.660156 C 45.351562 42.117188 46.261719 41.679688 46.757812 40.34375 C 46.746094 38.546875 45.839844 37.785156 44.03125 38.054688 Z M 44.03125 38.054688 "/>
</g>
</defs>
<g id="surface1">
<use xlink:href="#surface5" mask="url(#mask0)"/>
<use xlink:href="#surface8" mask="url(#mask1)"/>
</g>
</svg>
